<svg enable-background="new 0 0 512.116 512.116" height="512" viewBox="0 0 512.116 512.116" width="512" xmlns="http://www.w3.org/2000/svg"><path d="m490.308 21.808c-52.44-48.85-150.76-8.08-234.25 50.03-38.44 26.76-73.75 57.19-99.98 84.24-73.16 70.48-209.11 252.17-134.27 334.23 52.44 48.85 150.76 8.08 234.25-50.03 38.44-26.76 73.75-57.19 99.98-84.24 73.16-70.48 209.11-252.17 134.27-334.23zm-155.5 313c-17.6 18.68-45.99 43.92-78.75 68.23-72.74 53.99-167.09 103.36-213.03 66.05-48.64-54.64 48.19-208.85 134.28-291.78 17.6-18.68 45.98-43.92 78.75-68.23 72.74-53.99 167.08-103.36 213.03-66.05 48.64 54.64-48.19 208.85-134.28 291.78z" fill="#8abbff"/><path d="m356.038 356.038c-26.23 27.05-61.54 57.48-99.98 84.24v-37.24c32.76-24.31 61.15-49.55 78.75-68.23 86.09-82.93 182.92-237.14 134.28-291.78-45.95-37.31-140.29 12.06-213.03 66.05v-37.24c83.49-58.11 181.81-98.88 234.25-50.03 74.84 82.06-61.11 263.75-134.27 334.23z" fill="#716fe8"/><path d="m356.038 156.078c-23.54-24.43-59.49-55.87-99.98-84.13-80.75-56.33-179.6-99.98-234.25-50.14-71.35 76.59 48.49 251.04 134.27 334.23 23.54 24.43 59.49 55.87 99.98 84.13 80.75 56.33 179.6 99.98 234.25 50.14 71.35-76.59-48.49-251.04-134.27-334.23zm113.05 313.01c-40 35.6-133.34-6.74-213.03-65.75-29.17-21.61-56.52-45.46-78.75-68.53-60.15-56.68-188.4-225.14-134.28-291.78 40-35.6 133.34 6.74 213.03 65.75 29.17 21.61 56.52 45.46 78.75 68.53 60.15 56.67 188.4 225.14 134.28 291.78z" fill="#ff8852"/><path d="m490.308 490.308c-54.65 49.84-153.5 6.19-234.25-50.14v-36.83c79.69 59.01 173.03 101.35 213.03 65.75 54.12-66.64-74.13-235.11-134.28-291.78-22.23-23.07-49.58-46.92-78.75-68.53v-36.83c40.49 28.26 76.44 59.7 99.98 84.13 85.78 83.19 205.62 257.64 134.27 334.23z" fill="#ff3630"/><path d="m256.058 188.468c-37.27 0-67.59 30.32-67.59 67.59s30.32 67.59 67.59 67.59 67.59-30.32 67.59-67.59-30.32-67.59-67.59-67.59z" fill="#493d93"/><path d="m323.648 256.058c0 37.27-30.32 67.59-67.59 67.59v-135.18c37.27 0 67.59 30.32 67.59 67.59z" fill="#332c66"/><path d="m345.719 390.955c-24.869 0-45.103-20.243-45.103-45.125s20.233-45.125 45.103-45.125 45.104 20.243 45.104 45.125-20.234 45.125-45.104 45.125z" fill="#ffa400"/><path d="m184.492 90.352c-24.87 0-45.103-20.243-45.103-45.125s20.233-45.125 45.103-45.125 45.103 20.243 45.103 45.125-20.233 45.125-45.103 45.125z" fill="#ffda00"/></svg>