<svg height="682.66669" viewBox="0 0 682.66669 682.66669" width="682.66669" xmlns="http://www.w3.org/2000/svg" xmlns:xlink="http://www.w3.org/1999/xlink"><clipPath id="a"><path d="m0 512h512v-512h-512z"/></clipPath><g transform="matrix(1.3333333 0 0 -1.3333333 0 682.66667)"><path d="m0 0 42.966-42.966" style="fill:none;stroke:#ff919e;stroke-width:15;stroke-linecap:round;stroke-linejoin:round;stroke-miterlimit:10" transform="translate(325.1082 424.7878)"/><path d="m0 0h-21.853v-21.853" style="fill:none;stroke:#ff919e;stroke-width:15;stroke-linecap:round;stroke-linejoin:round;stroke-miterlimit:10" transform="translate(390.6557 381.0937)"/><g clip-path="url(#a)"><path d="m0 0 131.121-131.121 58.276 58.276-131.121 131.121c-16.093 16.092-16.093 42.183 0 58.276 16.092 16.092 42.183 16.092 58.276 0l14.569-14.569c16.092-16.093 42.183-16.093 58.276 0 16.092 16.092 16.092 42.183 0 58.275l-14.569 14.57c-48.278 48.277-126.551 48.277-174.828 0v-.001c-48.277-48.277-48.277-126.55 0-174.827" fill="#b0ee96" transform="translate(157.5522 300.9645)"/><path d="m0 0c-16.092-16.092-42.18-16.092-58.273-.002l131.118-131.119 58.276 58.276-131.121 131.121c16.092-16.093 16.092-42.184 0-58.276" fill="#91de7a" transform="translate(215.8281 300.9644)"/><path d="m0 0c0 22.758-18.449 41.207-41.207 41.207-.806 0-1.605-.029-2.4-.075-12.573-24.971-16.14-53.312-10.704-80.199 4.118-1.381 8.521-2.14 13.104-2.14 22.758 0 41.207 18.449 41.207 41.207" fill="#7bce5f" transform="translate(178.125 402.8329)"/><path d="m0 0c-12.509-7.074-20.959-20.489-20.959-35.885 0-22.758 18.449-41.207 41.207-41.207 15.396 0 28.811 8.449 35.885 20.959z" fill="#7bce5f" transform="translate(270.0913 304.9772)"/><path d="m0 0h-223.549c-22.758 0-41.208 18.449-41.208 41.207 0 22.758 18.45 41.207 41.208 41.207h223.549c22.758 0 41.207-18.449 41.207-41.207 0-22.758-18.449-41.207-41.207-41.207" fill="#b0ee96" transform="translate(367.7747 164.829)"/><path d="m0 0h-326.568c-22.758 0-41.207 18.449-41.207 41.207 0 22.758 18.449 41.207 41.207 41.207h326.568c22.758 0 41.207-18.449 41.207-41.207 0-22.758-18.449-41.207-41.207-41.207" fill="#91de7a" transform="translate(419.2838 82.4145)"/><path d="m0 0c0 22.758 18.449 41.207 41.207 41.207h-67.09c-22.758 0-41.208-18.449-41.208-41.207 0-22.758 18.45-41.207 41.208-41.207h67.09c-22.758 0-41.207 18.449-41.207 41.207" fill="#7bce5f" transform="translate(118.5996 123.6217)"/><path d="m0 0v105.472c0 9.418-7.635 17.052-17.052 17.052-8.072 0-15.038-5.659-16.691-13.559l-22.698-108.468c-13.392-63.997 35.451-124.119 100.834-124.119h367.737c22.758 0 41.207 18.449 41.207 41.207v.001c0 22.758-18.449 41.207-41.207 41.207h-370.923c-22.758-0-41.207 18.449-41.207 41.207" fill="#b0ee96" transform="translate(58.6631 123.6217)"/><path d="m0 0c-22.16 0-40.228-17.494-41.162-39.424 14.358-7.681 30.826-12.085 48.507-12.085h32.564c.847 3.293 1.298 6.745 1.298 10.302 0 22.758-18.449 41.207-41.207 41.207" fill="#7bce5f" transform="translate(95.7105 51.5091)"/><path d="m0 0c0 22.758 18.449 41.207 41.207 41.207h-8.427c-22.758 0-41.208 18.449-41.208 41.208v105.472c0 9.418-7.634 17.052-17.052 17.052-8.071 0-15.037-5.659-16.69-13.559l-22.699-108.468c-13.392-63.997 35.451-124.119 100.834-124.119h5.242c-22.758 0-41.207 18.449-41.207 41.207" fill="#91de7a" transform="translate(67.0905 41.2072)"/><path d="m0 0c0 22.758 18.449 41.207 41.207 41.207h-67.09c-22.758 0-41.208-18.449-41.208-41.207 0-22.758 18.45-41.207 41.208-41.207h67.09c-22.758 0-41.207 18.449-41.207 41.207" fill="#91de7a" transform="translate(170.1087 206.0361)"/><g fill="#7bce5f"><path d="m0 0c-22.758 0-41.207-18.449-41.207-41.207 0-3.557.451-7.009 1.298-10.302h79.818c.847 3.293 1.298 6.745 1.298 10.302 0 22.758-18.449 41.207-41.207 41.207" transform="translate(326.2245 216.338)"/><path d="m0 0c-22.758 0-41.207-18.449-41.207-41.207 0-3.557.451-7.009 1.298-10.302h79.818c.847 3.293 1.298 6.745 1.298 10.302 0 22.758-18.449 41.207-41.207 41.207" transform="translate(429.3633 51.5091)"/><path d="m0 0c0-22.758 18.449-41.207 41.207-41.207s41.207 18.449 41.207 41.207c0 3.557-.45 7.009-1.298 10.302h-79.818c-.847-3.293-1.298-6.745-1.298-10.302" transform="translate(214.7928 72.1127)"/><path d="m0 0c0-22.758 18.449-41.207 41.207-41.207s41.207 18.449 41.207 41.207c0 3.557-.45 7.009-1.298 10.302h-79.818c-.847-3.293-1.298-6.745-1.298-10.302" transform="translate(159.8068 154.5272)"/><path d="m0 0c-22.758 0-41.207-18.449-41.207-41.207 0-3.557.451-7.009 1.298-10.302h70.814c3.182 0 6.274.372 9.248 1.055.682 2.974 1.054 6.066 1.054 9.247 0 22.758-18.449 41.207-41.207 41.207" transform="translate(388.3783 133.9235)"/></g><path d="m0 0v-12.362" style="fill:none;stroke:#423e4f;stroke-width:15;stroke-linecap:round;stroke-linejoin:round;stroke-miterlimit:10" transform="translate(317.8109 438.2662)"/></g></g></svg>
